<svg width="439" height="96" viewBox="0 0 439 96" fill="none" xmlns="http://www.w3.org/2000/svg">
<path d="M393.706 95.0225C384.399 95.0225 376.351 93.0454 369.56 89.0911C362.81 85.0969 357.598 79.5449 353.923 72.4352C350.248 65.2856 348.411 56.9976 348.411 47.5712C348.411 38.0649 350.248 29.757 353.923 22.6472C357.598 15.4976 362.81 9.94561 369.56 5.99133C376.351 1.99711 384.399 0 393.706 0C403.012 0 411.04 1.99711 417.791 5.99133C424.581 9.94561 429.813 15.4976 433.488 22.6472C437.163 29.757 439 38.0649 439 47.5712C439 56.9976 437.163 65.2856 433.488 72.4352C429.813 79.5449 424.581 85.0969 417.791 89.0911C411.04 93.0454 403.012 95.0225 393.706 95.0225ZM393.825 75.2512C398.059 75.2512 401.594 74.0529 404.43 71.6564C407.266 69.2199 409.403 65.9047 410.841 61.7107C412.319 57.5168 413.058 52.7437 413.058 47.3914C413.058 42.0392 412.319 37.2661 410.841 33.0722C409.403 28.8782 407.266 25.563 404.43 23.1265C401.594 20.6901 398.059 19.4718 393.825 19.4718C389.552 19.4718 385.957 20.6901 383.041 23.1265C380.165 25.563 377.988 28.8782 376.51 33.0722C375.073 37.2661 374.354 42.0392 374.354 47.3914C374.354 52.7437 375.073 57.5168 376.51 61.7107C377.988 65.9047 380.165 69.2199 383.041 71.6564C385.957 74.0529 389.552 75.2512 393.825 75.2512Z" fill="black"/>
<path d="M294.684 95.0225C285.257 95.0225 277.149 93.0254 270.359 89.0312C263.609 84.9971 258.416 79.4051 254.781 72.2555C251.187 65.1058 249.389 56.8777 249.389 47.5712C249.389 38.1448 251.207 29.8768 254.841 22.7671C258.516 15.6174 263.729 10.0455 270.479 6.05124C277.229 2.01708 285.257 0 294.564 0C302.592 0 309.622 1.45789 315.653 4.37367C321.685 7.28945 326.458 11.3835 329.973 16.6559C333.488 21.9283 335.425 28.1193 335.784 35.229H311.699C311.02 30.6357 309.223 26.941 306.307 24.1451C303.431 21.3092 299.657 19.8912 294.983 19.8912C291.029 19.8912 287.574 20.9697 284.618 23.1265C281.703 25.2435 279.426 28.339 277.788 32.4131C276.151 36.4872 275.332 41.4201 275.332 47.2117C275.332 53.0832 276.131 58.076 277.728 62.19C279.366 66.3041 281.663 69.4396 284.618 71.5964C287.574 73.7533 291.029 74.8318 294.983 74.8318C297.899 74.8318 300.515 74.2326 302.832 73.0344C305.189 71.8361 307.126 70.0986 308.644 67.8219C310.201 65.5052 311.22 62.7293 311.699 59.4939H335.784C335.385 66.5238 333.468 72.7148 330.033 78.0671C326.638 83.3794 321.944 87.5334 315.953 90.5291C309.962 93.5247 302.872 95.0225 294.684 95.0225Z" fill="black"/>
<path d="M207.135 93.2253V1.19836H232.658V93.2253H207.135Z" fill="black"/>
<path d="M127.705 40.0221V93.2251H102.182V1.19827H126.507V17.4348H127.586C129.623 12.0825 133.038 7.84864 137.831 4.73315C142.624 1.57772 148.435 0 155.265 0C161.656 0 167.228 1.39798 171.981 4.19393C176.734 6.98989 180.429 10.9841 183.065 16.1766C185.701 21.3291 187.02 27.4802 187.02 34.6299V93.2251H161.496V39.1833C161.536 33.5515 160.098 29.1578 157.183 26.0024C154.267 22.807 150.253 21.2093 145.14 21.2093C141.705 21.2093 138.669 21.9483 136.033 23.4261C133.437 24.904 131.4 27.0609 129.922 29.8968C128.484 32.6927 127.745 36.0678 127.705 40.0221Z" fill="black"/>
<path d="M30.5558 94.9626C24.6843 94.9626 19.4519 93.9441 14.8585 91.9071C10.2652 89.8301 6.63041 86.7745 3.95428 82.7403C1.31809 78.6662 0 73.5936 0 67.5223C0 62.4097 0.938643 58.1159 2.81593 54.641C4.69321 51.166 7.24951 48.37 10.4848 46.2531C13.7202 44.1362 17.3948 42.5385 21.5089 41.46C25.6629 40.3816 30.0166 39.6227 34.57 39.1833C39.9223 38.6241 44.236 38.1049 47.5113 37.6256C50.7865 37.1063 53.1631 36.3474 54.641 35.3489C56.1188 34.3503 56.8578 32.8724 56.8578 30.9153V30.5558C56.8578 26.7613 55.6595 23.8255 53.263 21.7485C50.9064 19.6715 47.5512 18.633 43.1975 18.633C38.6042 18.633 34.9494 19.6516 32.2334 21.6886C29.5173 23.6857 27.7199 26.2021 26.8412 29.2377L3.23532 27.3205C4.43359 21.7286 6.79018 16.8956 10.3051 12.8215C13.82 8.7074 18.3535 5.55196 23.9054 3.35514C29.4973 1.11838 35.968 0 43.3173 0C48.4299 0 53.3229 0.599133 57.9961 1.7974C62.7093 2.99567 66.8833 4.85298 70.518 7.36933C74.1927 9.8857 77.0885 13.121 79.2054 17.0753C81.3224 20.9896 82.3808 25.6828 82.3808 31.1549V93.2251H58.1759V80.4636H57.4569C55.979 83.3395 54.0019 85.8758 51.5255 88.0726C49.049 90.2295 46.0734 91.927 42.5984 93.1652C39.1234 94.3635 35.1092 94.9626 30.5558 94.9626ZM37.8652 77.3481C41.6198 77.3481 44.935 76.6092 47.8108 75.1313C50.6867 73.6135 52.9434 71.5765 54.581 69.0202C56.2187 66.4639 57.0375 63.5681 57.0375 60.3327V50.5669C56.2387 51.0861 55.1402 51.5654 53.7423 52.0048C52.3842 52.4042 50.8465 52.7836 49.1289 53.1431C47.4114 53.4627 45.6939 53.7622 43.9764 54.0418C42.2589 54.2815 40.7011 54.5012 39.3031 54.7009C36.3075 55.1402 33.6913 55.8392 31.4545 56.7978C29.2177 57.7565 27.4803 59.0546 26.242 60.6922C25.0038 62.2899 24.3847 64.287 24.3847 66.6835C24.3847 70.1585 25.6429 72.8147 28.1593 74.652C30.7156 76.4494 33.9509 77.3481 37.8652 77.3481Z" fill="black"/>
</svg>
